<svg xmlns="http://www.w3.org/2000/svg" xmlns:xlink="http://www.w3.org/1999/xlink" width="342.8" height="122.3" viewBox="0 0 342.8 122.3"><style type="text/css">.st0{fill:#C9CACA;} .st1{fill-rule:evenodd;clip-rule:evenodd;} .st2{enable-background:new ;} .st3{fill:#FFFFFF;} .st4{fill:#284457;} .st5{clip-path:url(#SVGID_2_);fill:#FFFFFF;} .st6{clip-path:url(#SVGID_2_);fill:#E6E7E8;} .st7{clip-path:url(#SVGID_2_);fill:#BCBEC0;} .st8{clip-path:url(#SVGID_4_);fill:none;stroke:#294558;stroke-width:0.45;stroke-miterlimit:300;} .st9{clip-path:url(#SVGID_4_);fill:none;stroke:#FFFFFF;stroke-width:0.45;stroke-miterlimit:300;} .st10{display:none;} .st11{display:inline;}</style><g id="Layer_1"><path class="st0" d="M0 122.3V65.1h7.1V77h9.5V65.1h16.7V77h9.5l-.1-11.9H50v57.1H0v.1zm14.3-33.5H7.1v7.1h7.1v-7.1h.1zm0 9.5H7.1v7.1h7.1v-7.1h.1zm0 9.6H7.1v7.1h7.1v-7.1h.1zm9.5-19.1h-7.1v7.1h7.1v-7.1zm0 9.5h-7.1v7.1h7.1v-7.1zm0 9.6h-7.1v7.1h7.1v-7.1zm9.5-19.1h-7.1v7.1h7.1v-7.1zm0 9.5h-7.1v7.1h7.1v-7.1zm0 9.6h-7.1v7.1h7.1v-7.1zm9.6-19.1h-7.1v7.1h7.1v-7.1zm0 9.5h-7.1v7.1h7.1v-7.1zm0 9.6h-7.1v7.1h7.1v-7.1zm-7.2-38h4.8v4.8h-4.8v-4.8zm0-11.9h4.8v9.5h-4.8V58zM9.5 69.9h4.8v4.8H9.5v-4.8zm0-11.9h4.8v9.5H9.5V58z"/><path class="st3" d="M64 41.1c0-.5-.2-.9-.5-1.2L53.2 29.6c-.3-.3-.7-.5-1.2-.5-.9 0-1.7.8-1.7 1.7 0 .5.2 1 .6 1.3l9 9-9.1 9.1c-.3.3-.5.7-.5 1.2 0 .9.8 1.7 1.7 1.7.5 0 .9-.2 1.2-.5l10.2-10.2c.4-.4.6-.8.6-1.3z" id="ARROW__x2F__RIGHT"/><path class="st4" d="M28.9 58H0V0h28.9c.6 0 1.1.4 1.1 1v56c0 .5-.5 1-1.1 1z"/><path class="st3" d="M26.3 56.3c0-.1.1-.2.2-.2s.2.1.2.2-.1.2-.2.2c-.1.1-.2-.1-.2-.2zm-1 0c0-.1.1-.2.2-.2s.2.1.2.2-.1.2-.2.2c-.1.1-.2-.1-.2-.2zm-1 0c0-.1.1-.2.2-.2s.2.1.2.2-.1.2-.2.2c-.1.1-.2-.1-.2-.2zm-1 0c0-.1.1-.2.2-.2s.2.1.2.2-.1.2-.2.2c-.1.1-.2-.1-.2-.2zm-1 0c0-.1.1-.2.2-.2s.2.1.2.2-.1.2-.2.2c-.1.1-.2-.1-.2-.2zm-1 0c0-.1.1-.2.2-.2s.2.1.2.2-.1.2-.2.2c-.1.1-.2-.1-.2-.2zm-1 0c0-.1.1-.2.2-.2s.2.1.2.2-.1.2-.2.2c-.1.1-.2-.1-.2-.2zm-1 0c0-.1.1-.2.2-.2s.2.1.2.2-.1.2-.2.2c-.1.1-.2-.1-.2-.2zm-1 0c0-.1.1-.2.3-.2.1 0 .2.1.2.2s-.1.2-.2.2c-.2.1-.3-.1-.3-.2zm-1 0c0-.1.1-.2.2-.2s.2.1.2.2-.1.2-.2.2c-.1.1-.2-.1-.2-.2zm-1 0c0-.1.1-.2.2-.2s.2.1.2.2-.1.2-.2.2c-.1.1-.2-.1-.2-.2zm-1 0c0-.1.1-.2.2-.2s.2.1.2.2-.1.2-.2.2c-.1.1-.2-.1-.2-.2zm-1 0c0-.1.1-.2.2-.2s.2.1.2.2-.1.2-.2.2c-.1.1-.2-.1-.2-.2zm-1 0c0-.1.1-.2.2-.2s.2.1.2.2-.1.2-.2.2c-.1.1-.2-.1-.2-.2zm-1 0c0-.1.1-.2.2-.2s.2.1.2.2-.1.2-.2.2c-.1.1-.2-.1-.2-.2zm-1 0c0-.1.1-.2.2-.2s.2.1.2.2-.1.2-.2.2c-.1.1-.2-.1-.2-.2zm-1 0c0-.1.1-.2.2-.2s.3.1.3.2-.1.2-.3.2c-.1.1-.2-.1-.2-.2zm-1 0c0-.1.1-.2.2-.2s.2.1.2.2-.1.2-.2.2c-.1.1-.2-.1-.2-.2zm-1 0c0-.1.1-.2.2-.2s.2.1.2.2-.1.2-.2.2c-.1.1-.2-.1-.2-.2zm-1 0c0-.1.1-.2.2-.2s.2.1.2.2-.1.2-.2.2c-.1.1-.2-.1-.2-.2zm-1 0c0-.1.1-.2.2-.2s.2.1.2.2-.1.2-.2.2c-.1.1-.2-.1-.2-.2zm-1 0c0-.1.1-.2.2-.2s.2.1.2.2-.1.2-.2.2c-.1.1-.2-.1-.2-.2zm-1 0c0-.1.1-.2.2-.2s.2.1.2.2-.1.2-.2.2c-.1.1-.2-.1-.2-.2zm-1 0c0-.1.1-.2.2-.2s.2.1.2.2-.1.2-.2.2c0 .1-.2-.1-.2-.2zm-1 0c0-.1.1-.2.2-.2s.3.1.3.2-.1.2-.3.2c0 .1-.2-.1-.2-.2zm-1 0c0-.1.1-.2.2-.2s.2.1.2.2-.1.2-.2.2c0 .1-.2-.1-.2-.2zm-1 0c0-.1.1-.2.2-.2s.2.1.2.2-.1.2-.2.2c0 .1-.2-.1-.2-.2zm-1 0c0-.1.1-.2.3-.2.1 0 .2.1.2.2s-.1.2-.2.2c-.1.1-.3-.1-.3-.2zm28 0c-.1-.1 0-.3.1-.3.1-.1.3 0 .3.1.1.1 0 .3-.1.3h-.1c0 .1-.1 0-.2-.1zm.8-.6c-.1 0-.2-.2-.2-.3 0-.1.2-.2.3-.2.1 0 .2.2.2.3 0 .1-.1.2-.3.2zm-.2-1.2c0-.1.1-.2.2-.2s.2.1.2.2-.1.2-.2.2-.2-.1-.2-.2zm0-1c0-.1.1-.3.2-.3s.2.1.2.3c0 .1-.1.2-.2.2s-.2-.1-.2-.2zm0-1c0-.1.1-.2.2-.2s.2.1.2.2-.1.2-.2.2-.2-.1-.2-.2zm0-1c0-.1.1-.2.2-.2s.2.1.2.2-.1.2-.2.2-.2-.1-.2-.2zm0-1c0-.1.1-.2.2-.2s.2.1.2.2-.1.2-.2.2-.2-.1-.2-.2zm0-1c0-.1.1-.2.2-.2s.2.1.2.2-.1.2-.2.2-.2-.1-.2-.2zm0-1c0-.1.1-.2.2-.2s.2.1.2.2-.1.2-.2.2-.2-.1-.2-.2zm0-1c0-.1.1-.2.2-.2s.2.1.2.2-.1.2-.2.2-.2-.1-.2-.2zm0-1c0-.1.1-.2.2-.2s.2.1.2.2-.1.2-.2.2-.2-.1-.2-.2zm0-1c0-.1.1-.2.2-.2s.2.1.2.2-.1.2-.2.2-.2-.1-.2-.2zm0-1c0-.1.1-.2.2-.2s.2.1.2.2-.1.3-.2.3c-.1-.1-.2-.2-.2-.3zm0-1c0-.1.1-.2.2-.2s.2.1.2.2-.1.2-.2.2-.2-.1-.2-.2zm0-1c0-.1.1-.2.2-.2s.2.1.2.2-.1.2-.2.2-.2-.1-.2-.2zm0-1c0-.1.1-.2.2-.2s.2.1.2.2-.1.2-.2.2-.2-.1-.2-.2zm0-1c0-.1.1-.2.2-.2s.2.1.2.2-.1.2-.2.2-.2-.1-.2-.2zm0-1c0-.1.1-.2.2-.2s.2.1.2.2-.1.2-.2.2-.2-.1-.2-.2zm0-1c0-.1.1-.2.2-.2s.2.1.2.2-.1.2-.2.2-.2-.1-.2-.2zm0-1c0-.1.1-.2.2-.2s.2.1.2.2-.1.2-.2.2-.2-.1-.2-.2zm0-1c0-.1.1-.2.2-.2s.2.1.2.2-.1.2-.2.2c-.1.1-.2-.1-.2-.2zm0-1c0-.1.1-.2.2-.2s.2.1.2.2-.1.2-.2.2c-.1.1-.2-.1-.2-.2zm0-1c0-.1.1-.2.2-.2s.2.1.2.2-.1.2-.2.2c-.1.1-.2-.1-.2-.2zm0-1c0-.1.1-.2.2-.2s.2.1.2.2-.1.2-.2.2c-.1.1-.2-.1-.2-.2zm0-1c0-.1.1-.2.2-.2s.2.1.2.2-.1.2-.2.2c-.1.1-.2-.1-.2-.2zm0-1c0-.1.1-.2.2-.2s.2.1.2.2-.1.2-.2.2c-.1.1-.2-.1-.2-.2zm0-1c0-.1.1-.2.2-.2s.2.1.2.2-.1.2-.2.2c-.1.1-.2-.1-.2-.2zm0-1c0-.1.1-.2.2-.2s.2.1.2.2-.1.2-.2.2c-.1.1-.2-.1-.2-.2zm0-1c0-.1.1-.3.2-.3s.2.1.2.3c0 .1-.1.2-.2.2-.1.1-.2-.1-.2-.2zm0-1c0-.1.1-.2.2-.2s.2.1.2.2-.1.2-.2.2c-.1.1-.2-.1-.2-.2zm0-1c0-.1.1-.2.2-.2s.2.1.2.2-.1.2-.2.2c-.1.1-.2 0-.2-.2zm0-1c0-.1.1-.2.2-.2s.2.1.2.2-.1.2-.2.2c-.1.1-.2 0-.2-.2zm0-1c0-.1.1-.2.2-.2s.2.1.2.2-.1.2-.2.2c-.1.1-.2 0-.2-.2zm0-1c0-.1.1-.2.2-.2s.2.1.2.2-.1.2-.2.2c-.1.1-.2 0-.2-.2zm0-1c0-.1.1-.2.2-.2s.2.1.2.2-.1.2-.2.2c-.1.1-.2 0-.2-.2zm0-1c0-.1.1-.2.2-.2s.2.1.2.2-.1.2-.2.2c-.1.1-.2 0-.2-.2zm0-1c0-.1.1-.2.2-.2s.2.1.2.2-.1.3-.2.3-.2-.1-.2-.3zm0-1c0-.1.1-.2.2-.2s.2.1.2.2-.1.2-.2.2c-.1.1-.2 0-.2-.2zm0-1c0-.1.1-.2.2-.2s.2.1.2.2-.1.2-.2.2c-.1.1-.2 0-.2-.2zm0-1c0-.1.1-.2.2-.2s.2.1.2.2-.1.2-.2.2c-.1.1-.2 0-.2-.2zm0-1c0-.1.1-.2.2-.2s.2.1.2.2-.1.2-.2.2c-.1.1-.2 0-.2-.2zm0-1c0-.1.1-.2.2-.2s.2.1.2.2-.1.2-.2.2c-.1.1-.2 0-.2-.2zm0-1c0-.1.1-.2.2-.2s.2.1.2.2-.1.2-.2.2c-.1.1-.2 0-.2-.2zm0-1c0-.1.1-.2.2-.2s.2.1.2.2-.1.2-.2.2c-.1.1-.2 0-.2-.2zm0-1c0-.1.1-.2.2-.2s.2.1.2.2-.1.2-.2.2c-.1.1-.2 0-.2-.2zm0-1c0-.1.1-.3.2-.3s.2.1.2.3c0 .1-.1.2-.2.2-.1.1-.2 0-.2-.2zm0-1c0-.1.1-.2.2-.2s.2.1.2.2-.1.2-.2.2c-.1.1-.2 0-.2-.2zm0-1c0-.1.1-.2.2-.2s.2.1.2.2-.1.2-.2.2c-.1.1-.2 0-.2-.2zm0-1c0-.1.1-.2.2-.2s.2.1.2.2-.1.2-.2.2c-.1.1-.2 0-.2-.2zm0-1c0-.1.1-.2.2-.2s.2.1.2.2-.1.2-.2.2c-.1.1-.2 0-.2-.2zm0-1c0-.1.1-.2.2-.2s.2.1.2.2-.1.2-.2.2c-.1.1-.2 0-.2-.2zm0-1c0-.1.1-.2.2-.2s.2.1.2.2-.1.2-.2.2c-.1.1-.2 0-.2-.2zm0-1c0-.1.1-.2.2-.2s.2.1.2.2-.1.2-.2.2c-.1.1-.2 0-.2-.2zm0-1c0-.1.1-.2.2-.2s.2.1.2.2-.1.2-.2.2c-.1.1-.2 0-.2-.2zm0-.9c0-.1.1-.3.2-.3s.3.1.3.2-.1.3-.2.3c-.2 0-.3-.1-.3-.2zm-.5-.6c-.1 0-.2-.2-.1-.3.1-.1.2-.2.3-.1.1.1.2.2.1.3 0 .1-.1.2-.3.1.1.1.1 0 0 0zm-1.1-.3c0-.1.1-.2.2-.2s.2.1.2.2-.1.2-.2.2c-.1.1-.2 0-.2-.2zm-1 0c0-.1.1-.2.2-.2s.2.1.2.2-.1.2-.2.2c-.1.1-.2 0-.2-.2zm-1 0c0-.1.1-.2.2-.2s.2.1.2.2-.1.2-.2.2c-.1.1-.2 0-.2-.2zm-1 0c0-.1.1-.2.2-.2s.2.1.2.2-.1.2-.2.2c-.1.1-.2 0-.2-.2zm-1 0c0-.1.1-.2.2-.2s.2.1.2.2-.1.2-.2.2c-.1.1-.2 0-.2-.2zm-1 0c0-.1.1-.2.2-.2s.2.1.2.2-.1.2-.2.2c-.1.1-.2 0-.2-.2zm-1 0c0-.1.1-.2.2-.2s.2.1.2.2-.1.2-.2.2c-.1.1-.2 0-.2-.2zm-1 0c0-.1.1-.2.2-.2s.3.1.3.2-.1.2-.3.2c-.1.1-.2 0-.2-.2zm-1 0c0-.1.1-.2.2-.2s.2.1.2.2-.1.2-.2.2c-.1.1-.2 0-.2-.2zm-1 0c0-.1.1-.2.2-.2s.2.1.2.2-.1.2-.2.2c-.1.1-.2 0-.2-.2zm-1 0c0-.1.1-.2.2-.2s.2.1.2.2-.1.2-.2.2c-.1.1-.2 0-.2-.2zm-1 0c0-.1.1-.2.2-.2s.2.1.2.2-.1.2-.2.2c-.1.1-.2 0-.2-.2zm-1 0c0-.1.1-.2.2-.2s.2.1.2.2-.1.2-.2.2c-.1.1-.2 0-.2-.2zm-1 0c0-.1.1-.2.2-.2s.2.1.2.2-.1.2-.2.2c-.1.1-.2 0-.2-.2zm-1 0c0-.1.1-.2.2-.2s.2.1.2.2-.1.2-.2.2c-.1.1-.2 0-.2-.2zm-1 0c0-.1.1-.2.3-.2.1 0 .2.1.2.2s-.1.2-.2.2c-.2.1-.3 0-.3-.2zm-1 0c0-.1.1-.2.2-.2s.2.1.2.2-.1.2-.2.2c-.1.1-.2 0-.2-.2zm-1 0c0-.1.1-.2.2-.2s.2.1.2.2c.1.2 0 .3-.1.3-.2 0-.3-.1-.3-.3zm-1 0c0-.1.1-.2.2-.2s.2.1.2.2c.1.2 0 .3-.1.3-.2 0-.3-.1-.3-.3zm-1 0c0-.1.1-.2.2-.2s.2.1.2.2c.1.2 0 .3-.1.3-.2 0-.3-.1-.3-.3zm-1 0c0-.1.1-.2.2-.2s.2.1.2.2c.1.2 0 .3-.1.3-.2 0-.3-.1-.3-.3zm-1 0c0-.1.1-.2.2-.2s.2.1.2.2c.1.2 0 .3-.1.3-.2 0-.3-.1-.3-.3zm-1 0c0-.1.1-.2.2-.2s.2.1.2.2c.1.2 0 .3-.1.3-.2 0-.3-.1-.3-.3zm-1 0c0-.1.1-.2.2-.2s.2.1.2.2c.1.2 0 .3-.1.3-.2 0-.3-.1-.3-.3zm-1 0c0-.1.1-.2.2-.2s.3.1.3.2c0 .2-.1.3-.2.3-.2 0-.3-.1-.3-.3zm-1 0c0-.1.1-.2.2-.2s.2.1.2.2c.1.2 0 .3-.1.3-.2 0-.3-.1-.3-.3zm-1 0c0-.1.1-.2.2-.2s.2.1.2.2c.1.2 0 .3-.1.3-.2 0-.3-.1-.3-.3zm-1 0c0-.1.1-.2.3-.2.1 0 .2.1.2.2 0 .2-.1.3-.2.3-.2 0-.3-.1-.3-.3z"/><path class="st3" d="M5.5 30c0 .5.2.9.5 1.2l10.3 10.3c.3.3.7.5 1.2.5.9 0 1.7-.8 1.7-1.7 0-.5-.2-.9-.5-1.2l-9-9.1 9-9c.4-.3.6-.8.6-1.3 0-.9-.8-1.7-1.7-1.7-.5 0-.9.2-1.2.5L6.1 28.8c-.4.3-.6.7-.6 1.2z" id="ARROW__x2F__RIGHT_3_"/><path class="st4" d="M31.1 58H60V0H31.1c-.6 0-1.1.4-1.1 1v56c0 .5.5 1 1.1 1z"/><path class="st3" d="M61.4 56.6c-.1 0-.1 0-.2-.1 0-.1-.1-.1-.1-.2s0-.1.1-.2.3-.1.4 0c.1 0 .1.1.1.2s0 .1-.1.2c-.1 0-.1.1-.2.1zm-.2-1.3c0-.1.1-.2.2-.2s.2.1.2.2-.1.2-.2.2c-.1.1-.2 0-.2-.2zm0-1c0-.1.1-.3.2-.3s.2.1.2.3c0 .1-.1.2-.2.2-.1.1-.2 0-.2-.2zm0-1c0-.1.1-.2.2-.2s.2.1.2.2-.1.2-.2.2c-.1.1-.2 0-.2-.2zm0-1c0-.1.1-.2.2-.2s.2.1.2.2-.1.2-.2.2c-.1.1-.2 0-.2-.2zm0-1c0-.1.1-.2.2-.2s.2.1.2.2-.1.2-.2.2c-.1.1-.2 0-.2-.2zm0-.9c0-.1.1-.2.2-.2s.2.1.2.2-.1.2-.2.2-.2-.1-.2-.2zm0-1c0-.1.1-.2.2-.2s.2.1.2.2-.1.2-.2.2-.2-.1-.2-.2zm0-1c0-.1.1-.2.2-.2s.2.1.2.2-.1.2-.2.2-.2-.1-.2-.2zm0-1c0-.1.1-.2.2-.2s.2.1.2.2-.1.2-.2.2-.2-.1-.2-.2zm0-1c0-.1.1-.2.2-.2s.2.1.2.2-.1.2-.2.2-.2-.1-.2-.2zm0-1c0-.1.1-.2.2-.2s.2.1.2.2-.1.2-.2.2-.2-.1-.2-.2zm0-1c0-.1.1-.2.2-.2s.2.1.2.2-.1.2-.2.2-.2-.1-.2-.2zm0-1c0-.1.1-.2.2-.2s.2.1.2.2-.1.2-.2.2c-.1.1-.2-.1-.2-.2zm0-1c0-.1.1-.2.2-.2s.2.1.2.2-.1.2-.2.2c-.1.1-.2-.1-.2-.2zm0-1c0-.1.1-.2.2-.2s.2.1.2.2-.1.2-.2.2c-.1.1-.2 0-.2-.2zm0-1c0-.1.1-.2.2-.2s.2.1.2.2-.1.2-.2.2c-.1.1-.2 0-.2-.2zm0-1c0-.1.1-.2.2-.2s.2.1.2.2-.1.2-.2.2c-.1.1-.2 0-.2-.2zm0-1c0-.1.1-.2.2-.2s.2.1.2.2-.1.2-.2.2c-.1.1-.2 0-.2-.2zm0-1c0-.1.1-.2.2-.2s.2.1.2.2-.1.2-.2.2c-.1.1-.2 0-.2-.2zm0-.9c0-.1.1-.2.2-.2s.2.1.2.2-.1.2-.2.2-.2-.1-.2-.2zm0-1c0-.1.1-.2.2-.2s.2.1.2.2-.1.2-.2.2-.2-.1-.2-.2zm0-1c0-.1.1-.2.2-.2s.2.1.2.2-.1.2-.2.2-.2-.1-.2-.2zm0-1c0-.1.1-.2.2-.2s.2.1.2.2-.1.2-.2.2-.2-.1-.2-.2zm0-1c0-.1.1-.2.2-.2s.2.1.2.2-.1.2-.2.2-.2-.1-.2-.2zm0-1c0-.1.1-.2.2-.2s.2.1.2.2-.1.2-.2.2-.2-.1-.2-.2zm0-1c0-.1.1-.2.2-.2s.2.1.2.2-.1.2-.2.2c-.1.1-.2-.1-.2-.2zm0-1c0-.1.1-.2.2-.2s.2.1.2.2-.1.2-.2.2c-.1.1-.2-.1-.2-.2zm0-1c0-.1.1-.2.2-.2s.2.1.2.2-.1.2-.2.2c-.1.1-.2 0-.2-.2zm0-1c0-.1.1-.2.2-.2s.2.1.2.2-.1.2-.2.2c-.1.1-.2 0-.2-.2zm0-1c0-.1.1-.2.2-.2s.2.1.2.2-.1.2-.2.2c-.1.1-.2 0-.2-.2zm0-1c0-.1.1-.2.2-.2s.2.1.2.2-.1.2-.2.2c-.1.1-.2 0-.2-.2zm0-1c0-.1.1-.2.2-.2s.2.1.2.2-.1.2-.2.2c-.1.1-.2 0-.2-.2zm0-.9c0-.1.1-.2.2-.2s.2.1.2.2-.1.2-.2.2-.2-.1-.2-.2zm0-1c0-.1.1-.2.2-.2s.2.1.2.2-.1.2-.2.2-.2-.1-.2-.2zm0-1c0-.1.1-.2.2-.2s.2.1.2.2-.1.2-.2.2-.2-.1-.2-.2zm0-1c0-.1.1-.2.2-.2s.2.1.2.2-.1.2-.2.2-.2-.1-.2-.2zm0-1c0-.1.1-.2.2-.2s.2.1.2.2-.1.2-.2.2-.2-.1-.2-.2zm0-1c0-.1.1-.2.2-.2s.2.1.2.2-.1.2-.2.2-.2-.1-.2-.2zm0-1c0-.1.1-.2.2-.2s.2.1.2.2-.1.2-.2.2c-.1.1-.2-.1-.2-.2zm0-1c0-.1.1-.2.2-.2s.2.1.2.2-.1.2-.2.2c-.1.1-.2-.1-.2-.2zm0-1c0-.1.1-.2.2-.2s.2.1.2.2-.1.2-.2.2c-.1.1-.2 0-.2-.2zm0-1c0-.1.1-.2.2-.2s.2.1.2.2-.1.2-.2.2c-.1.1-.2 0-.2-.2zm0-1c0-.1.1-.2.2-.2s.2.1.2.2-.1.2-.2.2c-.1.1-.2 0-.2-.2zm0-1c0-.1.1-.2.2-.2s.2.1.2.2-.1.2-.2.2c-.1.1-.2 0-.2-.2zm0-1c0-.1.1-.2.2-.2s.2.1.2.2-.1.2-.2.2c-.1.1-.2 0-.2-.2zm0-.9c0-.1.1-.2.2-.2s.2.1.2.2-.1.2-.2.2-.2-.1-.2-.2zm0-1c0-.1.1-.2.2-.2s.2.1.2.2-.1.2-.2.2-.2-.1-.2-.2zm0-1c0-.1.1-.2.2-.2s.2.1.2.2-.1.2-.2.2-.2-.1-.2-.2zm0-1c0-.1.1-.2.2-.2s.2.1.2.2-.1.2-.2.2-.2-.1-.2-.2zm0-1c0-.1.1-.2.2-.2s.2.1.2.2-.1.2-.2.2-.2-.1-.2-.2zm0-1c0-.1.1-.2.2-.2s.2.1.2.2-.1.2-.2.2-.2-.1-.2-.2zm0-1c0-.1.1-.2.2-.2s.2.1.2.2-.1.3-.2.3-.2-.2-.2-.3zm0-1c0-.1.1-.2.2-.2s.2.1.2.2-.1.2-.2.2c-.1.1-.2-.1-.2-.2zm0-1c0-.1.1-.2.2-.2s.2.1.2.2-.1.2-.2.2c-.1.1-.2 0-.2-.2zm.2-.7c-.1 0-.1 0-.2-.1 0-.1-.1-.1-.1-.2s0-.1.1-.2.3-.1.4 0c.1 0 .1.1.1.2s0 .1-.1.2c-.1 0-.1.1-.2.1zm-1.2 54.3c0-.1.1-.2.3-.2.1 0 .2.1.2.2s-.1.2-.2.2c-.2.1-.3-.1-.3-.2zm-1 0c0-.1.1-.2.2-.2s.2.1.2.2-.1.2-.2.2c-.1.1-.2-.1-.2-.2zm-1 0c0-.1.1-.2.2-.2s.2.1.2.2-.1.2-.2.2c-.1.1-.2-.1-.2-.2zm-1 0c0-.1.1-.2.2-.2s.2.1.2.2-.1.2-.2.2c-.1.1-.2-.1-.2-.2zm-1 0c0-.1.1-.2.2-.2s.2.1.2.2-.1.2-.2.2c-.1.1-.2-.1-.2-.2zm-1 0c0-.1.1-.2.2-.2s.2.1.2.2-.1.2-.2.2c-.1.1-.2-.1-.2-.2zm-1 0c0-.1.1-.2.2-.2s.2.1.2.2-.1.2-.2.2c-.1.1-.2-.1-.2-.2zm-1 0c0-.1.1-.2.2-.2s.2.1.2.2-.1.2-.2.2c-.1.1-.2-.1-.2-.2zm-1 0c0-.1.1-.2.2-.2s.2.1.2.2-.1.2-.2.2c-.1.1-.2-.1-.2-.2zm-1 0c0-.1.1-.2.2-.2s.2.1.2.2-.1.2-.2.2c-.1.1-.2-.1-.2-.2zm-1 0c0-.1.1-.2.2-.2s.2.1.2.2-.1.2-.2.2c-.1.1-.2-.1-.2-.2zm-1 0c0-.1.1-.2.2-.2s.2.1.2.2-.1.2-.2.2c-.1.1-.2-.1-.2-.2zm-1 0c0-.1.1-.2.2-.2s.2.1.2.2-.1.2-.2.2c-.1.1-.2-.1-.2-.2zm-1 0c0-.1.1-.2.2-.2s.2.1.2.2-.1.2-.2.2c-.1.1-.2-.1-.2-.2zm-1 0c0-.1.1-.2.2-.2s.2.1.2.2-.1.2-.2.2c-.1.1-.2-.1-.2-.2zm-1 0c0-.1.1-.2.2-.2s.2.1.2.2-.1.2-.2.2c-.1.1-.2-.1-.2-.2zm-1 0c0-.1.1-.2.2-.2s.2.1.2.2-.1.2-.2.2c-.1.1-.2-.1-.2-.2zm-1 0c0-.1.1-.2.2-.2s.2.1.2.2-.1.2-.2.2c-.1.1-.2-.1-.2-.2zm-1 0c0-.1.1-.2.2-.2s.2.1.2.2-.1.2-.2.2c-.1.1-.2-.1-.2-.2zm-1 0c0-.1.1-.2.2-.2s.2.1.2.2-.1.2-.2.2c-.1.1-.2-.1-.2-.2zm-1 0c0-.1.1-.2.2-.2s.2.1.2.2-.1.2-.2.2c-.1.1-.2-.1-.2-.2zm-1 0c0-.1.1-.2.2-.2s.2.1.2.2-.1.2-.2.2c-.1.1-.2-.1-.2-.2zm-1 0c0-.1.1-.2.2-.2s.2.1.2.2-.1.2-.2.2c-.1.1-.2-.1-.2-.2zm-1 0c0-.1.1-.2.2-.2s.2.1.2.2-.1.2-.2.2c-.1.1-.2-.1-.2-.2zm-1 0c0-.1.1-.2.2-.2s.2.1.2.2-.1.2-.2.2c-.1.1-.2-.1-.2-.2zm-1 0c0-.1.1-.2.3-.2.1 0 .2.1.2.2s-.1.2-.2.2c-.2.1-.3-.1-.3-.2zm-1 0c0-.1.1-.2.2-.2s.2.1.2.2-.1.2-.2.2c-.1.1-.2-.1-.2-.2zm-1 0c0-.1.1-.2.2-.2s.2.1.2.2-.1.2-.2.2c-.1.1-.2-.1-.2-.2zm-.8.1c-.1 0-.2-.2-.1-.3.1-.1.2-.2.3-.1.1.1.2.2.1.3-.1.1-.1.2-.3.1 0 .1 0 .1 0 0zm-.8-.9c0-.1.1-.3.2-.3s.3.1.3.2-.1.3-.2.3c-.2 0-.3-.1-.3-.2zm0-1c0-.1.1-.2.2-.2s.2.1.2.2-.1.2-.2.2-.2-.1-.2-.2zm0-1c0-.1.1-.3.2-.3s.2.1.2.3c0 .1-.1.2-.2.2s-.2-.1-.2-.2zm0-1c0-.1.1-.2.2-.2s.2.1.2.2-.1.2-.2.2-.2-.1-.2-.2zm0-1c0-.1.1-.2.2-.2s.2.1.2.2-.1.2-.2.2-.2-.1-.2-.2zm0-1c0-.1.1-.2.2-.2s.2.1.2.2-.1.2-.2.2-.2-.1-.2-.2zm0-1c0-.1.1-.2.2-.2s.2.1.2.2-.1.2-.2.2-.2-.1-.2-.2zm0-1c0-.1.1-.2.2-.2s.2.1.2.2-.1.2-.2.2-.2-.1-.2-.2zm0-1c0-.1.1-.2.2-.2s.2.1.2.2-.1.2-.2.2-.2-.1-.2-.2zm0-1c0-.1.1-.2.2-.2s.2.1.2.2-.1.2-.2.2-.2-.1-.2-.2zm0-1c0-.1.1-.2.2-.2s.2.1.2.2-.1.2-.2.2-.2-.1-.2-.2zm0-1c0-.1.1-.2.2-.2s.2.1.2.2-.1.3-.2.3c-.1-.1-.2-.2-.2-.3zm0-1c0-.1.1-.2.2-.2s.2.1.2.2-.1.2-.2.2-.2-.1-.2-.2zm0-1c0-.1.1-.2.2-.2s.2.1.2.2-.1.2-.2.2-.2-.1-.2-.2zm0-1c0-.1.1-.2.2-.2s.2.1.2.2-.1.2-.2.2-.2-.1-.2-.2zm0-1c0-.1.1-.2.2-.2s.2.1.2.2-.1.2-.2.2-.2-.1-.2-.2zm0-1c0-.1.1-.2.2-.2s.2.1.2.2-.1.2-.2.2-.2-.1-.2-.2zm0-1c0-.1.1-.2.2-.2s.2.1.2.2-.1.2-.2.2-.2-.1-.2-.2zm0-1c0-.1.1-.2.2-.2s.2.1.2.2-.1.2-.2.2-.2-.1-.2-.2zm0-1c0-.1.1-.2.2-.2s.2.1.2.2-.1.2-.2.2c-.1.1-.2-.1-.2-.2zm0-1c0-.1.1-.2.2-.2s.2.1.2.2-.1.2-.2.2c-.1.1-.2-.1-.2-.2zm0-1c0-.1.1-.2.2-.2s.2.1.2.2-.1.2-.2.2c-.1.1-.2-.1-.2-.2zm0-1c0-.1.1-.2.2-.2s.2.1.2.2-.1.2-.2.2c-.1.1-.2-.1-.2-.2zm0-1c0-.1.1-.2.2-.2s.2.1.2.2-.1.2-.2.2c-.1.1-.2-.1-.2-.2zm0-1c0-.1.1-.2.2-.2s.2.1.2.2-.1.2-.2.2c-.1.1-.2-.1-.2-.2zm0-1c0-.1.1-.2.2-.2s.2.1.2.2-.1.2-.2.2c-.1.1-.2-.1-.2-.2zm0-1c0-.1.1-.2.2-.2s.2.1.2.2-.1.2-.2.2c-.1.1-.2-.1-.2-.2zm0-1c0-.1.1-.2.2-.2s.2.1.2.2-.1.2-.2.2c-.1.1-.2-.1-.2-.2zm0-1c0-.1.1-.2.2-.2s.2.1.2.2-.1.2-.2.2c-.1.1-.2-.1-.2-.2zm0-1c0-.1.1-.2.2-.2s.2.1.2.2-.1.2-.2.2c-.1.1-.2-.1-.2-.2zm0-1c0-.1.1-.2.2-.2s.2.1.2.2-.1.2-.2.2c-.1.1-.2 0-.2-.2zm0-1c0-.1.1-.2.2-.2s.2.1.2.2-.1.2-.2.2c-.1.1-.2 0-.2-.2zm0-1c0-.1.1-.2.2-.2s.2.1.2.2-.1.2-.2.2c-.1.1-.2 0-.2-.2zm0-1c0-.1.1-.2.2-.2s.2.1.2.2-.1.2-.2.2c-.1.1-.2 0-.2-.2zm0-1c0-.1.1-.2.2-.2s.2.1.2.2-.1.2-.2.2c-.1.1-.2 0-.2-.2zm0-1c0-.1.1-.2.2-.2s.2.1.2.2-.1.3-.2.3-.2-.1-.2-.3zm0-1c0-.1.1-.2.2-.2s.2.1.2.2-.1.2-.2.2c-.1.1-.2 0-.2-.2zm0-1c0-.1.1-.2.2-.2s.2.1.2.2-.1.2-.2.2c-.1.1-.2 0-.2-.2zm0-1c0-.1.1-.2.2-.2s.2.1.2.2-.1.2-.2.2c-.1.1-.2 0-.2-.2zm0-1c0-.1.1-.2.2-.2s.2.1.2.2-.1.2-.2.2c-.1.1-.2 0-.2-.2zm0-1c0-.1.1-.2.2-.2s.2.1.2.2-.1.2-.2.2c-.1.1-.2 0-.2-.2zm0-1c0-.1.1-.2.2-.2s.2.1.2.2-.1.2-.2.2c-.1.1-.2 0-.2-.2zm0-1c0-.1.1-.2.2-.2s.2.1.2.2-.1.2-.2.2c-.1.1-.2 0-.2-.2zm0-1c0-.1.1-.2.2-.2s.2.1.2.2-.1.2-.2.2c-.1.1-.2 0-.2-.2zm0-1c0-.1.1-.3.2-.3s.2.1.2.3c0 .1-.1.2-.2.2-.1.1-.2 0-.2-.2zm0-1c0-.1.1-.2.2-.2s.2.1.2.2-.1.2-.2.2c-.1.1-.2 0-.2-.2zm0-1c0-.1.1-.2.2-.2s.2.1.2.2-.1.2-.2.2c-.1.1-.2 0-.2-.2zm0-1c0-.1.1-.2.2-.2s.2.1.2.2-.1.2-.2.2c-.1.1-.2 0-.2-.2zm0-1c0-.1.1-.2.2-.2s.2.1.2.2-.1.2-.2.2c-.1.1-.2 0-.2-.2zm0-1c0-.1.1-.2.2-.2s.2.1.2.2-.1.2-.2.2c-.1.1-.2 0-.2-.2zm0-1c0-.1.1-.2.2-.2s.2.1.2.2-.1.2-.2.2c-.1.1-.2 0-.2-.2zm0-1c0-.1.1-.2.2-.2s.2.1.2.2-.1.2-.2.2c-.1.1-.2 0-.2-.2zm0-1c0-.1.1-.2.2-.2s.2.1.2.2-.1.3-.2.3-.2-.1-.2-.3zm.2-.7c-.1 0-.2-.1-.2-.3 0-.1.2-.2.3-.2.1 0 .2.2.2.3 0 .1-.1.2-.3.2zm.4-.9c-.1-.1 0-.3.1-.3s.3 0 .3.1 0 .3-.1.3h-.1c0 .1-.1 0-.2-.1zm28-.2c0-.1.1-.2.3-.2.1 0 .2.1.2.2s-.1.2-.2.2c-.2.1-.3 0-.3-.2zm-1 0c0-.1.1-.2.2-.2s.2.1.2.2-.1.2-.2.2c-.1.1-.2 0-.2-.2zm-1 0c0-.1.1-.2.2-.2s.2.1.2.2-.1.2-.2.2c-.1.1-.2 0-.2-.2zm-1 0c0-.1.1-.2.2-.2s.2.1.2.2-.1.2-.2.2c-.1.1-.2 0-.2-.2zm-1 0c0-.1.1-.2.2-.2s.2.1.2.2-.1.2-.2.2c-.1.1-.2 0-.2-.2zm-1 0c0-.1.1-.2.2-.2s.2.1.2.2-.1.2-.2.2c-.1.1-.2 0-.2-.2zm-1 0c0-.1.1-.2.2-.2s.2.1.2.2-.1.2-.2.2c-.1.1-.2 0-.2-.2zm-1 0c0-.1.1-.2.2-.2s.2.1.2.2-.1.2-.2.2c-.1.1-.2 0-.2-.2zm-1 0c0-.1.1-.2.2-.2s.2.1.2.2-.1.2-.2.2c-.1.1-.2 0-.2-.2zm-1 0c0-.1.1-.2.2-.2s.3.1.3.2-.1.2-.3.2c-.1.1-.2 0-.2-.2zm-1 0c0-.1.1-.2.2-.2s.2.1.2.2-.1.2-.2.2c-.1.1-.2 0-.2-.2zm-1 0c0-.1.1-.2.2-.2s.2.1.2.2-.1.2-.2.2c-.1.1-.2 0-.2-.2zm-1 0c0-.1.1-.2.2-.2s.2.1.2.2-.1.2-.2.2c-.1.1-.2 0-.2-.2zm-1 0c0-.1.1-.2.2-.2s.2.1.2.2-.1.2-.2.2c-.1.1-.2 0-.2-.2zm-1 0c0-.1.1-.2.2-.2s.2.1.2.2-.1.2-.2.2c-.1.1-.2 0-.2-.2zm-1 0c0-.1.1-.2.2-.2s.2.1.2.2-.1.2-.2.2c-.1.1-.2 0-.2-.2zm-1 0c0-.1.1-.2.2-.2s.2.1.2.2-.1.2-.2.2c-.1.1-.2 0-.2-.2zm-1 0c0-.1.1-.2.3-.2.1 0 .2.1.2.2s-.1.2-.2.2c-.2.1-.3 0-.3-.2zm-1 0c0-.1.1-.2.2-.2s.2.1.2.2-.1.2-.2.2c-.1.1-.2 0-.2-.2zm-1 0c0-.1.1-.2.2-.2s.2.1.2.2-.1.2-.2.2c-.1.1-.2 0-.2-.2zm-1 0c0-.1.1-.2.2-.2s.2.1.2.2-.1.2-.2.2c-.1.1-.2 0-.2-.2zm-1 0c0-.1.1-.2.2-.2s.2.1.2.2-.1.2-.2.2c-.1.1-.2 0-.2-.2zm-1 0c0-.1.1-.2.2-.2s.2.1.2.2-.1.2-.2.2c-.1.1-.2 0-.2-.2zm-1 0c0-.1.1-.2.2-.2s.2.1.2.2-.1.2-.2.2c-.1.1-.2 0-.2-.2zm-1 0c0-.1.1-.2.2-.2s.2.1.2.2-.1.2-.2.2c-.1.1-.2 0-.2-.2zm-1 0c0-.1.1-.2.2-.2s.2.1.2.2-.1.2-.2.2c-.1.1-.2 0-.2-.2zm-1 0c0-.1.1-.2.2-.2s.2.1.2.2-.1.2-.2.2c-.1.1-.2 0-.2-.2zm-1 0c0-.1.1-.2.2-.2s.2.1.2.2-.1.2-.2.2c-.1.1-.2 0-.2-.2z"/><path class="st3" d="M54.5 30c0-.5-.2-.9-.5-1.2L43.7 18.5c-.3-.3-.7-.5-1.2-.5-.9 0-1.7.8-1.7 1.7 0 .5.2 1 .6 1.3l9 9-9.1 9.1c-.3.3-.5.7-.5 1.2 0 .9.8 1.7 1.7 1.7.5 0 .9-.2 1.2-.5l10.2-10.3c.4-.3.6-.7.6-1.2z" id="ARROW__x2F__RIGHT_5_"/><defs><path id="SVGID_1_" d="M61.8 11.7h281v57.8h-281z"/></defs><clipPath id="SVGID_2_"><use xlink:href="#SVGID_1_" overflow="visible"/></clipPath><path class="st5" d="M72.3 12.2s0 10-10 10V59s10 0 10 10h260s0-10 10-10V22.2s-10 0-10-10h-260z"/><path class="st6" d="M332.3 69.5H71.8V69c0-9.4-9.1-9.5-9.5-9.5h-.5V21.8h.5c9.4 0 9.5-9.1 9.5-9.5v-.5h261v.5c0 9.4 9.1 9.5 9.5 9.5h.5v37.7h-.5c-9.4 0-9.5 9.1-9.5 9.5v.5h-.5zm-259.5-1h259c.2-2 1.4-9.7 10-10V22.7c-2-.2-9.7-1.4-10-10h-259c-.2 2-1.4 9.7-10 10v35.8c2.1.2 9.7 1.4 10 10z"/><path class="st5" d="M75.8 15.7s0 10-10 10v29s10 0 10 10h253s0-10 10-10v-29s-10 0-10-10h-253z"/><path class="st7" d="M67 25.7c-.1-.4.2-.8.6-.8.4-.1.8.2.8.6.1.4-.2.8-.6.9h-.1c-.4 0-.7-.3-.7-.7zm2.9-.6c-.2-.4 0-.8.4-1 .4-.2.8 0 1 .3.2.4 0 .8-.4 1-.1.1-.2.1-.3.1-.3 0-.6-.1-.7-.4zm2.6-1.5c-.3-.3-.3-.8 0-1.1.3-.3.8-.3 1.1 0 .3.3.3.8 0 1.1-.1.1-.3.2-.5.2-.3 0-.5-.1-.6-.2zm1.9-2.4c-.4-.2-.5-.6-.4-1 .2-.4.6-.5 1-.4.4.2.5.6.4 1-.1.3-.4.4-.7.4-.1.1-.2.1-.3 0zm1.1-2.7c-.4-.1-.7-.5-.6-.9.1-.4.5-.7.9-.6.4.1.7.5.6.9-.1.4-.4.6-.7.6h-.2zM65.1 51.8c0-.4.3-.8.8-.8.4 0 .8.3.8.8 0 .4-.3.8-.8.8s-.8-.4-.8-.8zm0-3c0-.4.3-.8.8-.8.4 0 .8.3.8.8 0 .4-.3.8-.8.8s-.8-.4-.8-.8zm0-3c0-.4.3-.8.8-.8.4 0 .8.3.8.8 0 .4-.3.8-.8.8s-.8-.4-.8-.8zm0-3c0-.4.3-.8.8-.8.4 0 .8.3.8.8 0 .4-.3.8-.8.8s-.8-.4-.8-.8zm0-3c0-.4.3-.8.8-.8.4 0 .8.3.8.8 0 .4-.3.8-.8.8s-.8-.4-.8-.8zm0-3c0-.4.3-.8.8-.8.4 0 .8.3.8.8 0 .4-.3.8-.8.8s-.8-.4-.8-.8zm0-3c0-.4.3-.8.8-.8.4 0 .8.3.8.8 0 .4-.3.8-.8.8s-.8-.4-.8-.8zm0-3c0-.4.3-.8.8-.8.4 0 .8.3.8.8 0 .4-.3.8-.8.8s-.8-.4-.8-.8zm0-3c0-.4.3-.8.8-.8.4 0 .8.3.8.8 0 .4-.3.8-.8.8s-.8-.4-.8-.8zM75 63c-.1-.4.2-.8.6-.9.4-.1.8.2.8.6.1.4-.2.8-.6.9h-.1c-.4 0-.7-.2-.7-.6zm-.8-2.7c-.2-.4 0-.8.4-1 .4-.2.8 0 1 .3.2.4 0 .8-.4 1-.1.1-.2.1-.3.1-.3.1-.6-.1-.7-.4zm-1.6-2.2c-.3-.3-.3-.8 0-1.1.3-.3.8-.3 1.1 0 .3.3.3.8 0 1.1-.1.1-.3.2-.5.2-.3 0-.5 0-.6-.2zm-2.3-1.5c-.4-.2-.5-.6-.4-1 .2-.4.6-.5 1-.4.4.2.5.6.4 1-.1.3-.4.4-.7.4-.1.1-.2 0-.3 0zm-2.6-.9c-.4-.1-.7-.5-.6-.9.1-.4.5-.7.9-.6.4.1.7.5.6.9-.1.4-.4.6-.7.6h-.2zm258.4 9.1c0-.4.3-.8.8-.8.4 0 .8.3.8.8 0 .4-.3.8-.8.8-.5-.1-.8-.4-.8-.8zm-3 0c0-.4.3-.8.8-.8.4 0 .8.3.8.8 0 .4-.3.8-.8.8-.5-.1-.8-.4-.8-.8zm-3 0c0-.4.3-.8.8-.8.4 0 .8.3.8.8 0 .4-.3.8-.8.8-.5-.1-.8-.4-.8-.8zm-3 0c0-.4.3-.8.8-.8.4 0 .8.3.8.8 0 .4-.3.8-.8.8-.5-.1-.8-.4-.8-.8zm-3 0c0-.4.3-.8.8-.8.4 0 .8.3.8.8 0 .4-.3.8-.8.8-.5-.1-.8-.4-.8-.8zm-3 0c0-.4.3-.8.8-.8.4 0 .8.3.8.8 0 .4-.3.8-.8.8-.5-.1-.8-.4-.8-.8zm-3 0c0-.4.3-.8.8-.8.4 0 .8.3.8.8 0 .4-.3.8-.8.8-.5-.1-.8-.4-.8-.8zm-3 0c0-.4.3-.8.8-.8.4 0 .8.3.8.8 0 .4-.3.8-.8.8-.5-.1-.8-.4-.8-.8zm-3 0c0-.4.3-.8.8-.8.4 0 .8.3.8.8 0 .4-.3.8-.8.8-.5-.1-.8-.4-.8-.8zm-3 0c0-.4.3-.8.8-.8.4 0 .8.3.8.8 0 .4-.3.8-.8.8-.5-.1-.8-.4-.8-.8zm-3 0c0-.4.3-.8.8-.8.4 0 .8.3.8.8 0 .4-.3.8-.8.8-.5-.1-.8-.4-.8-.8zm-3 0c0-.4.3-.8.8-.8.4 0 .8.3.8.8 0 .4-.3.8-.8.8-.5-.1-.8-.4-.8-.8zm-3 0c0-.4.3-.8.8-.8.4 0 .8.3.8.8 0 .4-.3.8-.8.8-.5-.1-.8-.4-.8-.8zm-3 0c0-.4.3-.8.8-.8.4 0 .8.3.8.8 0 .4-.3.8-.8.8-.5-.1-.8-.4-.8-.8zm-3 0c0-.4.3-.8.8-.8.4 0 .8.3.8.8 0 .4-.3.8-.8.8-.5-.1-.8-.4-.8-.8zm-3 0c0-.4.3-.8.8-.8.4 0 .8.3.8.8 0 .4-.3.8-.8.8-.5-.1-.8-.4-.8-.8zm-3 0c0-.4.3-.8.8-.8.4 0 .8.3.8.8 0 .4-.3.8-.8.8-.5-.1-.8-.4-.8-.8zm-3 0c0-.4.3-.8.8-.8.4 0 .8.3.8.8 0 .4-.3.8-.8.8-.5-.1-.8-.4-.8-.8zm-3 0c0-.4.3-.8.8-.8.4 0 .8.3.8.8 0 .4-.3.8-.8.8-.5-.1-.8-.4-.8-.8zm-3 0c0-.4.3-.8.8-.8.4 0 .8.3.8.8 0 .4-.3.8-.8.8-.5-.1-.8-.4-.8-.8zm-3 0c0-.4.3-.8.8-.8.4 0 .8.3.8.8 0 .4-.3.8-.8.8-.5-.1-.8-.4-.8-.8zm-3 0c0-.4.3-.8.8-.8.4 0 .8.3.8.8 0 .4-.3.8-.8.8-.5-.1-.8-.4-.8-.8zm-3 0c0-.4.3-.8.8-.8.4 0 .8.3.8.8 0 .4-.3.8-.8.8-.5-.1-.8-.4-.8-.8zm-3 0c0-.4.3-.8.8-.8.4 0 .8.3.8.8 0 .4-.3.8-.8.8-.5-.1-.8-.4-.8-.8zm-3 0c0-.4.3-.8.8-.8.4 0 .8.3.8.8 0 .4-.3.8-.8.8-.5-.1-.8-.4-.8-.8zm-3 0c0-.4.3-.8.8-.8.4 0 .8.3.8.8 0 .4-.3.8-.8.8-.5-.1-.8-.4-.8-.8zm-3 0c0-.4.3-.8.8-.8.4 0 .8.3.8.8 0 .4-.3.8-.8.8-.5-.1-.8-.4-.8-.8zm-3 0c0-.4.3-.8.8-.8.4 0 .8.3.8.8 0 .4-.3.8-.8.8-.5-.1-.8-.4-.8-.8zm-3 0c0-.4.3-.8.8-.8.4 0 .8.3.8.8 0 .4-.3.8-.8.8-.5-.1-.8-.4-.8-.8zm-3 0c0-.4.3-.8.8-.8.4 0 .8.3.8.8 0 .4-.3.8-.8.8-.5-.1-.8-.4-.8-.8zm-3 0c0-.4.3-.8.8-.8.4 0 .8.3.8.8 0 .4-.3.8-.8.8-.5-.1-.8-.4-.8-.8zm-3 0c0-.4.3-.8.8-.8.4 0 .8.3.8.8 0 .4-.3.8-.8.8-.5-.1-.8-.4-.8-.8zm-3 0c0-.4.3-.8.8-.8.4 0 .8.3.8.8 0 .4-.3.8-.8.8-.5-.1-.8-.4-.8-.8zm-3 0c0-.4.3-.8.8-.8.4 0 .8.3.8.8 0 .4-.3.8-.8.8-.5-.1-.8-.4-.8-.8zm-3 0c0-.4.3-.8.8-.8.4 0 .8.3.8.8 0 .4-.3.8-.8.8-.5-.1-.8-.4-.8-.8zm-3 0c0-.4.3-.8.8-.8.4 0 .8.3.8.8 0 .4-.3.8-.8.8-.5-.1-.8-.4-.8-.8zm-3 0c0-.4.3-.8.8-.8.4 0 .8.3.8.8 0 .4-.3.8-.8.8-.5-.1-.8-.4-.8-.8zm-3 0c0-.4.3-.8.8-.8.4 0 .8.3.8.8 0 .4-.3.8-.8.8-.5-.1-.8-.4-.8-.8zm-3 0c0-.4.3-.8.8-.8.4 0 .8.3.8.8 0 .4-.3.8-.8.8-.5-.1-.8-.4-.8-.8zm-3 0c0-.4.3-.8.8-.8.4 0 .8.3.8.8 0 .4-.3.8-.8.8-.5-.1-.8-.4-.8-.8zm-3 0c0-.4.3-.8.8-.8.4 0 .8.3.8.8 0 .4-.3.8-.8.8-.5-.1-.8-.4-.8-.8zm-3 0c0-.4.3-.8.8-.8.4 0 .8.3.8.8 0 .4-.3.8-.8.8-.5-.1-.8-.4-.8-.8zm-3 0c0-.4.3-.8.8-.8.4 0 .8.3.8.8 0 .4-.3.8-.8.8-.5-.1-.8-.4-.8-.8zm-3 0c0-.4.3-.8.8-.8.4 0 .8.3.8.8 0 .4-.3.8-.8.8-.5-.1-.8-.4-.8-.8zm-3 0c0-.4.3-.8.8-.8.4 0 .8.3.8.8 0 .4-.3.8-.8.8-.5-.1-.8-.4-.8-.8zm-3 0c0-.4.3-.8.8-.8.4 0 .8.3.8.8 0 .4-.3.8-.8.8-.5-.1-.8-.4-.8-.8zm-3 0c0-.4.3-.8.8-.8.4 0 .8.3.8.8 0 .4-.3.8-.8.8-.5-.1-.8-.4-.8-.8zm-3 0c0-.4.3-.8.8-.8.4 0 .8.3.8.8 0 .4-.3.8-.8.8-.5-.1-.8-.4-.8-.8zm-3 0c0-.4.3-.8.8-.8.4 0 .8.3.8.8 0 .4-.3.8-.8.8-.5-.1-.8-.4-.8-.8zm-3 0c0-.4.3-.8.8-.8.4 0 .8.3.8.8 0 .4-.3.8-.8.8-.5-.1-.8-.4-.8-.8zm-3 0c0-.4.3-.8.8-.8.4 0 .8.3.8.8 0 .4-.3.8-.8.8-.5-.1-.8-.4-.8-.8zm-3 0c0-.4.3-.8.8-.8.4 0 .8.3.8.8 0 .4-.3.8-.8.8-.5-.1-.8-.4-.8-.8zm-3 0c0-.4.3-.8.8-.8.4 0 .8.3.8.8 0 .4-.3.8-.8.8-.5-.1-.8-.4-.8-.8zm-3 0c0-.4.3-.8.8-.8.4 0 .8.3.8.8 0 .4-.3.8-.8.8-.5-.1-.8-.4-.8-.8zm-3 0c0-.4.3-.8.8-.8.4 0 .8.3.8.8 0 .4-.3.8-.8.8-.5-.1-.8-.4-.8-.8zm-3 0c0-.4.3-.8.8-.8.4 0 .8.3.8.8 0 .4-.3.8-.8.8-.5-.1-.8-.4-.8-.8zm-3 0c0-.4.3-.8.8-.8.4 0 .8.3.8.8 0 .4-.3.8-.8.8-.5-.1-.8-.4-.8-.8zm-3 0c0-.4.3-.8.8-.8.4 0 .8.3.8.8 0 .4-.3.8-.8.8-.5-.1-.8-.4-.8-.8zm-3 0c0-.4.3-.8.8-.8.4 0 .8.3.8.8 0 .4-.3.8-.8.8-.5-.1-.8-.4-.8-.8zm-3 0c0-.4.3-.8.8-.8.4 0 .8.3.8.8 0 .4-.3.8-.8.8-.5-.1-.8-.4-.8-.8zm-3 0c0-.4.3-.8.8-.8.4 0 .8.3.8.8 0 .4-.3.8-.8.8-.5-.1-.8-.4-.8-.8zm-3 0c0-.4.3-.8.8-.8.4 0 .8.3.8.8 0 .4-.3.8-.8.8-.5-.1-.8-.4-.8-.8zm-3 0c0-.4.3-.8.8-.8.4 0 .8.3.8.8 0 .4-.3.8-.8.8-.5-.1-.8-.4-.8-.8zm-3 0c0-.4.3-.8.8-.8.4 0 .8.3.8.8 0 .4-.3.8-.8.8-.5-.1-.8-.4-.8-.8zm-3 0c0-.4.3-.8.8-.8.4 0 .8.3.8.8 0 .4-.3.8-.8.8-.5-.1-.8-.4-.8-.8zm-3 0c0-.4.3-.8.8-.8.4 0 .8.3.8.8 0 .4-.3.8-.8.8-.5-.1-.8-.4-.8-.8zm-3 0c0-.4.3-.8.8-.8.4 0 .8.3.8.8 0 .4-.3.8-.8.8-.5-.1-.8-.4-.8-.8zm-3 0c0-.4.3-.8.8-.8.4 0 .8.3.8.8 0 .4-.3.8-.8.8-.5-.1-.8-.4-.8-.8zm-3 0c0-.4.3-.8.8-.8.4 0 .8.3.8.8 0 .4-.3.8-.8.8-.5-.1-.8-.4-.8-.8zm-3 0c0-.4.3-.8.8-.8.4 0 .8.3.8.8 0 .4-.3.8-.8.8-.5-.1-.8-.4-.8-.8zm-3 0c0-.4.3-.8.8-.8.4 0 .8.3.8.8 0 .4-.3.8-.8.8-.5-.1-.8-.4-.8-.8zm-3 0c0-.4.3-.8.8-.8.4 0 .8.3.8.8 0 .4-.3.8-.8.8-.5-.1-.8-.4-.8-.8zm-3 0c0-.4.3-.8.8-.8.4 0 .8.3.8.8 0 .4-.3.8-.8.8-.5-.1-.8-.4-.8-.8zm-3 0c0-.4.3-.8.8-.8.4 0 .8.3.8.8 0 .4-.3.8-.8.8-.5-.1-.8-.4-.8-.8zm-3 0c0-.4.3-.8.8-.8.4 0 .8.3.8.8 0 .4-.3.8-.8.8-.5-.1-.8-.4-.8-.8zm-3 0c0-.4.3-.8.8-.8.4 0 .8.3.8.8 0 .4-.3.8-.8.8-.5-.1-.8-.4-.8-.8zm-3 0c0-.4.3-.8.8-.8.4 0 .8.3.8.8 0 .4-.3.8-.8.8-.5-.1-.8-.4-.8-.8zm-3 0c0-.4.3-.8.8-.8.4 0 .8.3.8.8 0 .4-.3.8-.8.8-.5-.1-.8-.4-.8-.8zm-3 0c0-.4.3-.8.8-.8.4 0 .8.3.8.8 0 .4-.3.8-.8.8-.5-.1-.8-.4-.8-.8zm-3 0c0-.4.3-.8.8-.8.4 0 .8.3.8.8 0 .4-.3.8-.8.8-.5-.1-.8-.4-.8-.8zm-3 0c0-.4.3-.8.8-.8.4 0 .8.3.8.8 0 .4-.3.8-.8.8-.5-.1-.8-.4-.8-.8zm-3 0c0-.4.3-.8.8-.8.4 0 .8.3.8.8 0 .4-.3.8-.8.8-.5-.1-.8-.4-.8-.8zm-3 0c0-.4.3-.8.8-.8.4 0 .8.3.8.8 0 .4-.3.8-.8.8-.5-.1-.8-.4-.8-.8zm-3 0c0-.4.3-.8.8-.8.4 0 .8.3.8.8 0 .4-.3.8-.8.8-.5-.1-.8-.4-.8-.8zm251.8-1.3c-.4-.1-.7-.5-.6-.9.1-.4.5-.7.9-.6.4.1.7.5.6.9-.1.4-.4.6-.7.6h-.2zm.8-2.9c-.4-.2-.5-.6-.4-1 .2-.4.6-.5 1-.4.4.2.5.6.4 1-.1.3-.4.4-.7.4-.1.1-.2.1-.3 0zm1.5-2.6c-.3-.3-.3-.8 0-1.1.3-.3.8-.3 1.1 0 .3.3.3.8 0 1.1-.2.2-.3.2-.5.2-.3 0-.5-.1-.6-.2zm2.2-2c-.2-.4 0-.8.4-1 .4-.2.8 0 1 .4.2.4 0 .8-.3 1-.1 0-.2.1-.3.1-.4 0-.7-.2-.8-.5zm2.8-1c-.1-.4.2-.8.6-.9.4-.1.8.2.8.6.1.4-.2.8-.6.9h-.1c-.3 0-.6-.2-.7-.6zm1.9-2.3c0-.4.3-.8.8-.8.4 0 .8.3.8.8 0 .4-.3.8-.8.8-.5-.1-.8-.4-.8-.8zm0-3c0-.4.3-.8.8-.8.4 0 .8.3.8.8 0 .4-.3.8-.8.8-.5-.1-.8-.4-.8-.8zm0-3c0-.4.3-.8.8-.8.4 0 .8.3.8.8 0 .4-.3.7-.8.7s-.8-.3-.8-.7zm0-3c0-.4.3-.8.8-.8.4 0 .8.3.8.8 0 .4-.3.8-.8.8-.5-.1-.8-.4-.8-.8zm0-3c0-.4.3-.8.8-.8.4 0 .8.3.8.8 0 .4-.3.8-.8.8-.5-.1-.8-.4-.8-.8zm0-3c0-.4.3-.8.8-.8.4 0 .8.3.8.8 0 .4-.3.8-.8.8-.5-.1-.8-.4-.8-.8zm0-3c0-.4.3-.8.8-.8.4 0 .8.3.8.8 0 .4-.3.8-.8.8-.5-.1-.8-.4-.8-.8zm0-3c0-.4.3-.8.8-.8.4 0 .8.3.8.8 0 .4-.3.8-.8.8-.5-.1-.8-.4-.8-.8zm0-3c0-.4.3-.8.8-.8.4 0 .8.3.8.8 0 .4-.3.8-.8.8-.5-.1-.8-.4-.8-.8zm-1.4-2.4c-.4-.1-.7-.5-.6-.9.1-.4.5-.7.9-.6.4.1.7.5.6.9-.1.4-.4.6-.7.6h-.2zm-3-1c-.4-.2-.5-.6-.3-1s.6-.5 1-.4c.4.2.5.6.3 1-.1.3-.4.4-.7.4h-.3zm-2.7-1.8c-.3-.3-.3-.8 0-1.1.3-.3.8-.3 1.1 0 .3.3.3.8 0 1.1-.2.2-.3.2-.5.2s-.4-.1-.6-.2zm-1.9-2.7c-.2-.4 0-.8.4-1 .4-.2.8 0 1 .3.2.4 0 .8-.3 1-.1 0-.2.1-.3.1-.4 0-.6-.1-.8-.4zm-.9-3.1c-.1-.4.2-.8.6-.9.4-.1.8.2.9.6.1.4-.2.8-.6.9h-.1c-.4.1-.7-.2-.8-.6zm-2.1-1.9c0-.4.3-.8.8-.8.4 0 .8.3.8.8 0 .4-.3.8-.8.8-.5-.1-.8-.4-.8-.8zm-3 0c0-.4.3-.8.8-.8.4 0 .8.3.8.8 0 .4-.3.8-.8.8-.5-.1-.8-.4-.8-.8zm-3 0c0-.4.3-.8.8-.8.4 0 .8.3.8.8 0 .4-.3.8-.8.8-.5-.1-.8-.4-.8-.8zm-3 0c0-.4.3-.8.8-.8.4 0 .8.3.8.8 0 .4-.3.8-.8.8-.5-.1-.8-.4-.8-.8zm-3 0c0-.4.3-.8.8-.8.4 0 .8.3.8.8 0 .4-.3.8-.8.8-.5-.1-.8-.4-.8-.8zm-3 0c0-.4.3-.8.8-.8.4 0 .8.3.8.8 0 .4-.3.8-.8.8-.5-.1-.8-.4-.8-.8zm-3 0c0-.4.3-.8.8-.8.4 0 .8.3.8.8 0 .4-.3.8-.8.8-.5-.1-.8-.4-.8-.8zm-3 0c0-.4.3-.8.8-.8.4 0 .8.3.8.8 0 .4-.3.8-.8.8-.5-.1-.8-.4-.8-.8zm-3 0c0-.4.3-.8.8-.8.4 0 .8.3.8.8 0 .4-.3.8-.8.8-.5-.1-.8-.4-.8-.8zm-3 0c0-.4.3-.8.8-.8.4 0 .8.3.8.8 0 .4-.3.8-.8.8-.5-.1-.8-.4-.8-.8zm-3 0c0-.4.3-.8.8-.8.4 0 .8.3.8.8 0 .4-.3.8-.8.8-.5-.1-.8-.4-.8-.8zm-3 0c0-.4.3-.8.8-.8.4 0 .8.3.8.8 0 .4-.3.8-.8.8-.5-.1-.8-.4-.8-.8zm-3 0c0-.4.3-.8.8-.8.4 0 .8.3.8.8 0 .4-.3.8-.8.8-.5-.1-.8-.4-.8-.8zm-3 0c0-.4.3-.8.8-.8.4 0 .8.3.8.8 0 .4-.3.8-.8.8-.5-.1-.8-.4-.8-.8zm-3 0c0-.4.3-.8.8-.8.4 0 .8.3.8.8 0 .4-.3.8-.8.8-.5-.1-.8-.4-.8-.8zm-3 0c0-.4.3-.8.8-.8.4 0 .8.3.8.8 0 .4-.3.8-.8.8-.5-.1-.8-.4-.8-.8zm-3 0c0-.4.3-.8.8-.8.4 0 .8.3.8.8 0 .4-.3.8-.8.8-.5-.1-.8-.4-.8-.8zm-3 0c0-.4.3-.8.8-.8.4 0 .8.3.8.8 0 .4-.3.8-.8.8-.5-.1-.8-.4-.8-.8zm-3 0c0-.4.3-.8.8-.8.4 0 .8.3.8.8 0 .4-.3.8-.8.8-.5-.1-.8-.4-.8-.8zm-3 0c0-.4.3-.8.8-.8.4 0 .8.3.8.8 0 .4-.3.8-.8.8-.5-.1-.8-.4-.8-.8zm-3 0c0-.4.3-.8.8-.8.4 0 .8.3.8.8 0 .4-.3.8-.8.8-.5-.1-.8-.4-.8-.8zm-3 0c0-.4.3-.8.8-.8.4 0 .8.3.8.8 0 .4-.3.8-.8.8-.5-.1-.8-.4-.8-.8zm-3 0c0-.4.3-.8.8-.8.4 0 .8.3.8.8 0 .4-.3.8-.8.8-.5-.1-.8-.4-.8-.8zm-3 0c0-.4.3-.8.8-.8.4 0 .8.3.8.8 0 .4-.3.8-.8.8-.5-.1-.8-.4-.8-.8zm-3 0c0-.4.3-.8.8-.8.4 0 .8.3.8.8 0 .4-.3.8-.8.8-.5-.1-.8-.4-.8-.8zm-3 0c0-.4.3-.8.8-.8.4 0 .8.3.8.8 0 .4-.3.8-.8.8-.5-.1-.8-.4-.8-.8zm-3 0c0-.4.3-.8.8-.8.4 0 .8.3.8.8 0 .4-.3.8-.8.8-.5-.1-.8-.4-.8-.8zm-3 0c0-.4.3-.8.8-.8.4 0 .8.3.8.8 0 .4-.3.8-.8.8-.5-.1-.8-.4-.8-.8zm-3 0c0-.4.3-.8.8-.8.4 0 .8.3.8.8 0 .4-.3.8-.8.8-.5-.1-.8-.4-.8-.8zm-3 0c0-.4.3-.8.8-.8.4 0 .8.3.8.8 0 .4-.3.8-.8.8-.5-.1-.8-.4-.8-.8zm-3 0c0-.4.3-.8.8-.8.4 0 .8.3.8.8 0 .4-.3.8-.8.8-.5-.1-.8-.4-.8-.8zm-3 0c0-.4.3-.8.8-.8.4 0 .8.3.8.8 0 .4-.3.8-.8.8-.5-.1-.8-.4-.8-.8zm-3 0c0-.4.3-.8.8-.8.4 0 .8.3.8.8 0 .4-.3.8-.8.8-.5-.1-.8-.4-.8-.8zm-3 0c0-.4.3-.8.8-.8.4 0 .8.3.8.8 0 .4-.3.8-.8.8-.5-.1-.8-.4-.8-.8zm-3 0c0-.4.3-.8.8-.8.4 0 .8.3.8.8 0 .4-.3.8-.8.8-.5-.1-.8-.4-.8-.8zm-3 0c0-.4.3-.8.8-.8.4 0 .8.3.8.8 0 .4-.3.8-.8.8-.5-.1-.8-.4-.8-.8zm-3 0c0-.4.3-.8.8-.8.4 0 .8.3.8.8 0 .4-.3.8-.8.8-.5-.1-.8-.4-.8-.8zm-3 0c0-.4.3-.8.8-.8.4 0 .8.3.8.8 0 .4-.3.8-.8.8-.5-.1-.8-.4-.8-.8zm-3 0c0-.4.3-.8.8-.8.4 0 .8.3.8.8 0 .4-.3.8-.8.8-.5-.1-.8-.4-.8-.8zm-3 0c0-.4.3-.8.8-.8.4 0 .8.3.8.8 0 .4-.3.8-.8.8-.5-.1-.8-.4-.8-.8zm-3 0c0-.4.3-.8.8-.8.4 0 .8.3.8.8 0 .4-.3.8-.8.8-.5-.1-.8-.4-.8-.8zm-3 0c0-.4.3-.8.8-.8.4 0 .8.3.8.8 0 .4-.3.8-.8.8-.5-.1-.8-.4-.8-.8zm-3 0c0-.4.3-.8.8-.8.4 0 .8.3.8.8 0 .4-.3.8-.8.8-.5-.1-.8-.4-.8-.8zm-3 0c0-.4.3-.8.8-.8.4 0 .8.3.8.8 0 .4-.3.8-.8.8-.5-.1-.8-.4-.8-.8zm-3 0c0-.4.3-.8.8-.8.4 0 .8.3.8.8 0 .4-.3.8-.8.8-.5-.1-.8-.4-.8-.8zm-3 0c0-.4.3-.8.8-.8.4 0 .8.3.8.8 0 .4-.3.8-.8.8-.5-.1-.8-.4-.8-.8zm-3 0c0-.4.3-.8.8-.8.4 0 .8.3.8.8 0 .4-.3.8-.8.8-.5-.1-.8-.4-.8-.8zm-3 0c0-.4.3-.8.8-.8.4 0 .8.3.8.8 0 .4-.3.8-.8.8-.5-.1-.8-.4-.8-.8zm-3 0c0-.4.3-.8.8-.8.4 0 .8.3.8.8 0 .4-.3.8-.8.8-.5-.1-.8-.4-.8-.8zm-3 0c0-.4.3-.8.8-.8.4 0 .8.3.8.8 0 .4-.3.8-.8.8-.5-.1-.8-.4-.8-.8zm-3 0c0-.4.3-.8.8-.8.4 0 .8.3.8.8 0 .4-.3.8-.8.8-.5-.1-.8-.4-.8-.8zm-3 0c0-.4.3-.8.8-.8.4 0 .8.3.8.8 0 .4-.3.8-.8.8-.5-.1-.8-.4-.8-.8zm-3 0c0-.4.3-.8.8-.8.4 0 .8.3.8.8 0 .4-.3.8-.8.8-.5-.1-.8-.4-.8-.8zm-3 0c0-.4.3-.8.8-.8.4 0 .8.3.8.8 0 .4-.3.8-.8.8-.5-.1-.8-.4-.8-.8zm-3 0c0-.4.3-.8.8-.8.4 0 .8.3.8.8 0 .4-.3.8-.8.8-.5-.1-.8-.4-.8-.8zm-3 0c0-.4.3-.8.8-.8.4 0 .8.3.8.8 0 .4-.3.8-.8.8-.5-.1-.8-.4-.8-.8zm-3 0c0-.4.3-.8.8-.8.4 0 .8.3.8.8 0 .4-.3.8-.8.8-.5-.1-.8-.4-.8-.8zm-3 0c0-.4.3-.8.8-.8.4 0 .8.3.8.8 0 .4-.3.8-.8.8-.5-.1-.8-.4-.8-.8zm-3 0c0-.4.3-.8.8-.8.4 0 .8.3.8.8 0 .4-.3.8-.8.8-.5-.1-.8-.4-.8-.8zm-3 0c0-.4.3-.8.8-.8.4 0 .8.3.8.8 0 .4-.3.8-.8.8-.5-.1-.8-.4-.8-.8zm-3 0c0-.4.3-.8.8-.8.4 0 .8.3.8.8 0 .4-.3.8-.8.8-.5-.1-.8-.4-.8-.8zm-3 0c0-.4.3-.8.8-.8.4 0 .8.3.8.8 0 .4-.3.8-.8.8-.5-.1-.8-.4-.8-.8zm-3 0c0-.4.3-.8.8-.8.4 0 .8.3.8.8 0 .4-.3.8-.8.8-.5-.1-.8-.4-.8-.8zm-3 0c0-.4.3-.8.8-.8.4 0 .8.3.8.8 0 .4-.3.8-.8.8-.5-.1-.8-.4-.8-.8zm-3 0c0-.4.3-.8.8-.8.4 0 .8.3.8.8 0 .4-.3.8-.8.8-.5-.1-.8-.4-.8-.8zm-3 0c0-.4.3-.8.8-.8.4 0 .8.3.8.8 0 .4-.3.8-.8.8-.5-.1-.8-.4-.8-.8zm-3 0c0-.4.3-.8.8-.8.4 0 .8.3.8.8 0 .4-.3.8-.8.8-.5-.1-.8-.4-.8-.8zm-3 0c0-.4.3-.8.8-.8.4 0 .8.3.8.8 0 .4-.3.8-.8.8-.5-.1-.8-.4-.8-.8zm-3 0c0-.4.3-.8.8-.8.4 0 .8.3.8.8 0 .4-.3.8-.8.8-.5-.1-.8-.4-.8-.8zm-3 0c0-.4.3-.8.8-.8.4 0 .8.3.8.8 0 .4-.3.8-.8.8-.5-.1-.8-.4-.8-.8zm-3 0c0-.4.3-.8.8-.8.4 0 .8.3.8.8 0 .4-.3.8-.8.8-.5-.1-.8-.4-.8-.8zm-3 0c0-.4.3-.8.8-.8.4 0 .8.3.8.8 0 .4-.3.8-.8.8-.5-.1-.8-.4-.8-.8zm-3 0c0-.4.3-.8.8-.8.4 0 .8.3.8.8 0 .4-.3.8-.8.8-.5-.1-.8-.4-.8-.8zm-3 0c0-.4.3-.8.8-.8.4 0 .8.3.8.8 0 .4-.3.8-.8.8-.5-.1-.8-.4-.8-.8zm-3 0c0-.4.3-.8.8-.8.4 0 .8.3.8.8 0 .4-.3.8-.8.8-.5-.1-.8-.4-.8-.8zm-3 0c0-.4.3-.8.8-.8.4 0 .8.3.8.8 0 .4-.3.8-.8.8-.5-.1-.8-.4-.8-.8zm-3 0c0-.4.3-.8.8-.8.4 0 .8.3.8.8 0 .4-.3.8-.8.8-.5-.1-.8-.4-.8-.8zm-3 0c0-.4.3-.8.8-.8.4 0 .8.3.8.8 0 .4-.3.8-.8.8-.5-.1-.8-.4-.8-.8zm-3 0c0-.4.3-.8.8-.8.4 0 .8.3.8.8 0 .4-.3.8-.8.8-.5-.1-.8-.4-.8-.8zm-3 0c0-.4.3-.8.8-.8.4 0 .8.3.8.8 0 .4-.3.8-.8.8-.5-.1-.8-.4-.8-.8zm-3 0c0-.4.3-.8.8-.8.4 0 .8.3.8.8 0 .4-.3.8-.8.8-.5-.1-.8-.4-.8-.8zm-3 0c0-.4.3-.8.8-.8.4 0 .8.3.8.8 0 .4-.3.8-.8.8-.5-.1-.8-.4-.8-.8zm-3 0c0-.4.3-.8.8-.8.4 0 .8.3.8.8 0 .4-.3.8-.8.8-.5-.1-.8-.4-.8-.8zm-3 0c0-.4.3-.8.8-.8.4 0 .8.3.8.8 0 .4-.3.8-.8.8-.5-.1-.8-.4-.8-.8z"/><defs><path id="SVGID_3_" d="M69.8 0h252v84h-252z"/></defs><clipPath id="SVGID_4_"><use xlink:href="#SVGID_3_" overflow="visible"/></clipPath><path class="st8" d="M70.1 81.5l2.3-2.2 2.3 2.2-2.3 2.2zm5 0l2.3-2.2 2.4 2.2-2.4 2.2zm5.1 0l2.3-2.2 2.3 2.2-2.3 2.2zm5 0l2.3-2.2 2.3 2.2-2.3 2.2zm5 0l2.3-2.2 2.4 2.2-2.4 2.2zm5.1 0l2.3-2.2 2.3 2.2-2.3 2.2zm5 0l2.3-2.2 2.3 2.2-2.3 2.2zm5 0l2.4-2.2 2.3 2.2-2.3 2.2zm5.1 0l2.3-2.2 2.3 2.2-2.3 2.2zm5 0l2.3-2.2 2.3 2.2-2.3 2.2zm5 0l2.4-2.2 2.3 2.2-2.3 2.2zm5.1 0l2.3-2.2 2.3 2.2-2.3 2.2zm5 0l2.3-2.2 2.3 2.2-2.3 2.2zm5 0l2.4-2.2 2.3 2.2-2.3 2.2zm5.1 0l2.3-2.2 2.3 2.2-2.3 2.2zm5 0l2.3-2.2 2.3 2.2-2.3 2.2zm5.1 0l2.3-2.2 2.3 2.2-2.3 2.2zm5 0l2.3-2.2 2.3 2.2-2.3 2.2zm5 0l2.3-2.2 2.4 2.2-2.4 2.2zm5.1 0l2.3-2.2 2.3 2.2-2.3 2.2zm5 0l2.3-2.2 2.3 2.2-2.3 2.2zm5 0l2.3-2.2 2.4 2.2-2.4 2.2zm5.1 0l2.3-2.2 2.3 2.2-2.3 2.2zm5 0l2.3-2.2 2.3 2.2-2.3 2.2zm5 0l2.3-2.2 2.4 2.2-2.4 2.2zm5.1 0l2.3-2.2 2.3 2.2-2.3 2.2zm5 0l2.3-2.2 2.3 2.2-2.3 2.2zm5 0l2.4-2.2 2.3 2.2-2.3 2.2zm5.1 0l2.3-2.2 2.3 2.2-2.3 2.2zm5 0l2.3-2.2 2.3 2.2-2.3 2.2zm5 0l2.4-2.2 2.3 2.2-2.3 2.2zm5.1 0l2.3-2.2 2.3 2.2-2.3 2.2zm5 0l2.3-2.2 2.3 2.2-2.3 2.2zm5 0l2.4-2.2 2.3 2.2-2.3 2.2zm5.1 0l2.3-2.2 2.3 2.2-2.3 2.2zm5 0l2.3-2.2 2.3 2.2-2.3 2.2zm5.1 0l2.3-2.2 2.3 2.2-2.3 2.2zm5 0l2.3-2.2 2.3 2.2-2.3 2.2zm5 0l2.3-2.2 2.4 2.2-2.4 2.2zm5.1 0l2.3-2.2 2.3 2.2-2.3 2.2zm5 0l2.3-2.2 2.3 2.2-2.3 2.2zm5 0l2.3-2.2 2.4 2.2-2.4 2.2zm5.1 0l2.3-2.2 2.3 2.2-2.3 2.2zm5 0l2.3-2.2 2.3 2.2-2.3 2.2zm5 0l2.3-2.2 2.4 2.2-2.4 2.2zm5.1 0l2.3-2.2 2.3 2.2-2.3 2.2zm5 0l2.3-2.2 2.3 2.2-2.3 2.2zm5 0l2.4-2.2 2.3 2.2-2.3 2.2zm5.1 0l2.3-2.2 2.3 2.2-2.3 2.2zm5 0l2.3-2.2 2.3 2.2-2.3 2.2z"/><path class="st9" d="M70.1 2.5L72.4.3l2.3 2.2-2.3 2.2zm5 0L77.4.3l2.4 2.2-2.4 2.2zm5.1 0L82.5.3l2.3 2.2-2.3 2.2zm5 0L87.5.3l2.3 2.2-2.3 2.2zm5 0L92.5.3l2.4 2.2-2.4 2.2zm5.1 0L97.6.3l2.3 2.2-2.3 2.2zm5 0l2.3-2.2 2.3 2.2-2.3 2.2zm5 0l2.4-2.2 2.3 2.2-2.3 2.2zm5.1 0l2.3-2.2 2.3 2.2-2.3 2.2zm5 0l2.3-2.2 2.3 2.2-2.3 2.2zm5 0l2.4-2.2 2.3 2.2-2.3 2.2zm5.1 0l2.3-2.2 2.3 2.2-2.3 2.2zm5 0l2.3-2.2 2.3 2.2-2.3 2.2zm5 0l2.4-2.2 2.3 2.2-2.3 2.2zm5.1 0l2.3-2.2 2.3 2.2-2.3 2.2zm5 0l2.3-2.2 2.3 2.2-2.3 2.2zm5.1 0L153 .3l2.3 2.2-2.3 2.2zm5 0L158 .3l2.3 2.2-2.3 2.2zm5 0L163 .3l2.4 2.2-2.4 2.2zm5.1 0l2.3-2.2 2.3 2.2-2.3 2.2zm5 0l2.3-2.2 2.3 2.2-2.3 2.2zm5 0l2.3-2.2 2.4 2.2-2.4 2.2zm5.1 0l2.3-2.2 2.3 2.2-2.3 2.2zm5 0l2.3-2.2 2.3 2.2-2.3 2.2zm5 0l2.3-2.2 2.4 2.2-2.4 2.2zm5.1 0l2.3-2.2 2.3 2.2-2.3 2.2zm5 0l2.3-2.2 2.3 2.2-2.3 2.2zm5 0l2.4-2.2 2.3 2.2-2.3 2.2zm5.1 0l2.3-2.2 2.3 2.2-2.3 2.2zm5 0l2.3-2.2 2.3 2.2-2.3 2.2zm5 0l2.4-2.2 2.3 2.2-2.3 2.2zm5.1 0l2.3-2.2 2.3 2.2-2.3 2.2zm5 0l2.3-2.2 2.3 2.2-2.3 2.2zm5 0l2.4-2.2 2.3 2.2-2.3 2.2zm5.1 0l2.3-2.2 2.3 2.2-2.3 2.2zm5 0l2.3-2.2 2.3 2.2-2.3 2.2zm5.1 0l2.3-2.2 2.3 2.2-2.3 2.2zm5 0l2.3-2.2 2.3 2.2-2.3 2.2zm5 0l2.3-2.2 2.4 2.2-2.4 2.2zm5.1 0l2.3-2.2 2.3 2.2-2.3 2.2zm5 0l2.3-2.2 2.3 2.2-2.3 2.2zm5 0l2.3-2.2 2.4 2.2-2.4 2.2zm5.1 0l2.3-2.2 2.3 2.2-2.3 2.2zm5 0l2.3-2.2 2.3 2.2-2.3 2.2zm5 0l2.3-2.2 2.4 2.2-2.4 2.2zm5.1 0L299 .3l2.3 2.2-2.3 2.2zm5 0L304 .3l2.3 2.2-2.3 2.2zm5 0l2.4-2.2 2.3 2.2-2.3 2.2zm5.1 0l2.3-2.2 2.3 2.2-2.3 2.2zm5 0l2.3-2.2 2.3 2.2-2.3 2.2z"/></g></svg>